<svg width="14" height="14" viewBox="0 0 14 14" fill="none" xmlns="http://www.w3.org/2000/svg">
<path d="M13.0944 10.6871C12.5982 10.1871 11.3963 9.45745 10.8132 9.16338C10.0538 8.78088 9.99129 8.74963 9.39442 9.19307C8.99629 9.48901 8.7316 9.75338 8.26567 9.65401C7.79973 9.55463 6.78723 8.99432 5.90067 8.11057C5.0141 7.22682 4.42129 6.18495 4.3216 5.72057C4.22192 5.2562 4.49067 4.99463 4.78379 4.59557C5.19692 4.03307 5.16567 3.93932 4.81254 3.17995C4.53723 2.58932 3.78629 1.3987 3.28442 0.904947C2.74754 0.374635 2.74754 0.468384 2.4016 0.612134C2.11997 0.730631 1.84978 0.87467 1.59442 1.04245C1.09442 1.37463 0.816917 1.65057 0.622855 2.06526C0.428792 2.47995 0.341605 3.45213 1.34379 5.27276C2.34598 7.09338 3.0491 8.02432 4.50442 9.47557C5.95973 10.9268 7.07879 11.7071 8.71473 12.6246C10.7385 13.7581 11.5147 13.5371 11.9307 13.3434C12.3466 13.1496 12.6238 12.8746 12.9566 12.3746C13.1248 12.1197 13.2692 11.8498 13.3879 11.5684C13.5319 11.2237 13.6257 11.2237 13.0944 10.6871Z" stroke="white" stroke-miterlimit="10"/>
</svg>
