<svg width="82" height="80" viewBox="0 0 82 80" fill="none" xmlns="http://www.w3.org/2000/svg">
<path d="M37.7279 0.421705C37.5022 0.91783 37.0257 2.48062 36.8251 3.49767C36.6997 4.09302 36.5242 4.19225 34.9945 4.44031C34.0416 4.61395 32.7627 4.91163 32.0857 5.13488L30.9071 5.55659L28.1487 2.62946L27.1958 2.95194C26.6942 3.12558 25.4404 3.72093 24.4123 4.26667L22.5817 5.28372L22.7572 6.54884C22.8324 7.24341 23.0331 8.28527 23.2086 8.88062C23.4343 9.74884 23.4343 9.9969 23.1584 10.1705C22.9578 10.2698 22.1052 11.0636 21.2276 11.907L19.6477 13.4698L18.3187 13.0729C15.9615 12.3535 15.7358 12.3535 15.3095 12.8248C15.1089 13.0729 14.4068 14.1643 13.7799 15.231L12.6263 17.1907L13.8802 18.7783L15.1591 20.3411L13.5542 24.7566L12.2502 24.9302C11.548 25.0295 10.7456 25.2279 10.4698 25.3767C10.0435 25.6248 10.1187 25.6744 11.2221 25.8233C11.9242 25.9225 13.4539 26.0217 14.6575 26.0217L16.8643 26.0465L17.0147 25.3519C17.4159 23.5659 19.1462 19.6713 19.9988 18.6543C20.1743 18.431 20.8514 17.5628 21.4783 16.7442C22.9578 14.8093 23.5095 14.214 25.0141 12.9984C26.3682 11.8822 30.0795 9.67442 30.556 9.67442C30.7315 9.67442 30.9071 9.57519 30.9572 9.45116C31.0575 9.15349 34.9444 8.0124 36.9254 7.71473C39.5334 7.29302 43.5456 7.39225 45.8276 7.93798C51.2441 9.22791 51.2441 9.22791 56.2343 12.5767C58.2404 13.9163 62.0771 18.5302 62.6037 20.2667C62.7792 20.7876 62.9297 20.8372 64.7854 20.8372C66.4655 20.8372 66.8166 20.7628 66.9419 20.3907C67.0172 20.1674 67.5939 19.3736 68.2208 18.6543C68.948 17.786 69.274 17.2155 69.1737 16.9426C69.0734 16.7194 68.4214 15.6527 67.7193 14.586C66.2649 12.4031 66.2147 12.4031 63.8826 13.1225L62.378 13.5938L61.5003 12.7008C60.9988 12.2047 60.0459 11.3116 59.3939 10.7163L58.1652 9.67442L58.7169 7.71473C58.9927 6.64806 59.1933 5.6062 59.1181 5.43256C59.0428 5.23411 57.8392 4.51473 56.46 3.84496L53.9774 2.60465L52.4728 4.11783L50.9933 5.63101L49.2881 5.06046C48.3603 4.73798 47.0563 4.4155 46.4043 4.31628C45.326 4.16744 45.2006 4.09302 45.0753 3.37364C45 2.95194 44.8245 2.33178 44.6991 1.9845C44.5737 1.63721 44.4233 1.06667 44.348 0.669767L44.1976 0H41.063C38.3548 0 37.9285 0.049612 37.7279 0.421705Z" fill="#0F172A"/>
<path d="M62.2526 5.68061C62.2526 6.20154 62.1774 7.14418 62.1022 7.76433L61.9517 8.88061L64.5346 9.67441C65.9639 10.0961 67.3682 10.5426 67.6441 10.6667C67.9199 10.7907 68.8226 11.138 69.6502 11.4357C70.4777 11.7085 71.7566 12.2295 72.4838 12.5519C73.211 12.8744 73.863 13.1473 73.9132 13.1473C73.9884 13.1473 74.8912 13.5442 75.9444 14.0155L77.8753 14.9085L77.7248 19.0512C77.6496 21.3333 77.3988 24.6077 77.148 26.369C76.7468 29.2713 76.7468 29.5442 77.123 29.9659C77.9254 30.8341 78.3517 32.5457 78.3517 34.9271C78.3517 37.0605 78.2012 37.7798 77.474 39.4419C76.8471 40.8062 75.3425 42.5426 73.9383 43.4357C72.5841 44.3039 72.3835 44.5767 71.6061 46.338C71.1297 47.3798 70.6532 48.4217 70.5279 48.645C70.4276 48.8434 70.0013 49.6372 69.6251 50.3814C68.3713 52.7628 65.3872 57.3519 63.8826 59.1628C60.9487 62.7349 59.093 64.5705 55.3817 67.6713C52.222 70.3008 47.3823 73.3519 43.3199 75.2124C41.1633 76.2295 40.9126 76.2791 40.2355 75.9318C40.0098 75.783 39.0318 75.3116 38.0539 74.8651C28.7756 70.5736 19.6227 62.4868 14.6575 54.2015C14.0808 53.2341 13.2282 51.8202 12.7266 51.0264L11.849 49.6124H9.71746C8.53887 49.6124 7.58596 49.6868 7.58596 49.786C7.58596 50.307 10.219 54.9209 12.2502 57.9473C17.2655 65.4139 24.9389 72.4837 32.537 76.6015C38.4802 79.8264 39.3076 79.8139 41.2824 80C42.0347 80 42.693 79.9132 43.0691 79.8139C43.4703 79.7395 44.6991 79.0326 46.0783 78.338C47.4575 77.6434 48.937 76.8992 49.3383 76.7008C51.2942 75.7333 56.0337 72.4093 59.4691 69.5814C61.6508 67.7705 66.6912 62.338 68.3462 60.0062C71.3303 55.7643 73.3615 52.2915 74.841 48.9922C75.2422 48.0248 75.7438 46.9085 75.9444 46.5116C79.0037 39.7891 81.0098 30.8837 81.8123 20.3411C81.9878 18.2325 82.0881 15.6031 82.0379 14.5116L81.9376 12.5271L80.4331 11.7333C76.471 9.6248 68.5719 6.49921 64.0832 5.2589L62.2526 4.76278V5.68061Z" fill="#0F172A"/>
<path d="M15.485 6.07752C9.91807 7.93798 9.26608 8.18604 7.88688 8.8062C7.15966 9.15349 6.50767 9.42636 6.40736 9.42636C6.33214 9.42636 4.85262 10.1209 3.12235 10.9395L-0.012207 12.4775L0.138252 18.3318C0.338863 25.8729 0.965775 30.3876 2.87159 37.507L3.64896 40.4341H5.7303C6.88382 40.4341 7.83672 40.3597 7.83672 40.2357C7.83672 40.1364 7.51073 38.9209 7.10951 37.5566C5.42938 31.8264 4.40125 25.2527 4.15048 18.9271L4.00003 14.9333L5.02816 14.4124C5.57984 14.1395 6.45752 13.7426 7.0092 13.5442C7.53581 13.3457 9.69238 12.5271 11.8239 11.6837C13.9554 10.8651 16.6887 9.89767 17.9175 9.52558C19.4973 9.02946 20.0991 8.75659 20.0239 8.50853C19.9486 8.33488 19.8233 7.46666 19.723 6.57364C19.5976 5.30853 19.4722 4.96124 19.1462 4.98605C18.9205 4.98605 17.2905 5.48217 15.485 6.07752Z" fill="#0F172A"/>
<path d="M51.9211 15.0822C51.4196 15.7271 50.8679 16.4961 50.6924 16.7938C50.2661 17.5132 50.0404 17.5132 48.6612 16.7442C44.8746 14.6605 38.1291 14.5116 33.7658 16.3969C32.2612 17.0667 29.5529 18.8031 28.4496 19.845C26.7193 21.4822 24.663 24.7318 23.9107 27.0388C23.7603 27.5101 23.1334 28.4279 22.5566 29.0481C19.5223 32.2977 17.4911 34.5302 17.1652 35.0016C16.9144 35.3736 16.5884 35.4729 15.9364 35.4233L15.0587 35.3488L15.0337 32L14.9835 28.6512L10.3444 28.5023L10.0685 29.1969C9.91806 29.5938 9.84283 32.4465 9.86791 36.5643L9.89299 43.2868L7.36026 43.3612C4.4514 43.4357 4.5517 43.3116 5.68014 45.6434L6.20675 46.7597H14.9835L15.134 39.1938H15.7358C16.0618 39.1938 16.5132 39.3923 16.7389 39.6155C16.9645 39.8636 18.6948 41.6 20.5756 43.4605L24.011 46.8837H27.4465C29.3523 46.8837 30.9071 46.8093 30.9071 46.7349C30.9071 46.6605 30.2049 45.9659 29.3523 45.1969C28.4997 44.4031 27.0704 43.0636 26.1425 42.1705C25.2147 41.2775 23.7101 39.8636 22.7823 38.9954C21.8795 38.1271 21.1272 37.3333 21.1272 37.2093C21.1272 37.0853 22.682 35.3736 24.5878 33.414C26.4685 31.4543 29.2019 28.6016 30.6563 27.0388C33.6655 23.814 35.6716 22.2512 37.4771 21.7054C38.7309 21.3581 38.7309 21.3581 39.6337 22.0775C40.1853 22.4992 40.7621 22.7721 41.063 22.6977C41.3389 22.6481 41.6899 22.5985 41.8404 22.5985C42.2918 22.5488 43.1694 21.5814 43.345 20.9612C43.696 19.5721 42.2667 17.9845 40.9376 18.2326C40.2104 18.3814 39.1823 19.0264 39.0318 19.4729C38.9566 19.6465 38.3046 19.9442 37.6025 20.093C34.4178 20.8372 31.5089 23.0946 28.8508 26.8403C27.7223 28.4527 27.622 28.5271 26.6441 28.5271C25.967 28.5271 25.5658 28.4031 25.4655 28.155C25.2649 27.5845 26.7193 24.831 28.2489 22.8961C30.8318 19.6217 33.6404 17.8853 37.5523 17.0915C40.3107 16.5209 42.0159 16.4961 44.0471 16.9923C45.5266 17.3643 48.7113 18.5798 48.7113 18.7783C48.7113 18.8279 48.26 19.4233 47.7083 20.1178C46.7303 21.3333 46.5046 21.8295 46.9058 21.8295C47.0061 21.8295 47.8587 22.5488 48.8367 23.4419L50.5921 25.0543H70.4777L71.23 25.7985C72.6343 27.1628 74.6404 26.4682 74.9664 24.5085C75.0918 23.6899 75.0165 23.4915 74.2893 22.8217C73.186 21.8047 72.0826 21.8047 71.1046 22.8217L70.4025 23.5659H51.3945L50.1658 22.3256C49.0875 21.2837 48.9621 21.0605 49.263 20.7628C49.4636 20.5643 50.0153 19.9194 50.4918 19.3488C52.548 16.7938 53.0245 16.3473 53.3756 16.645C53.5762 16.7938 53.7266 17.2403 53.7266 17.6124C53.7266 18.2822 54.1529 18.8031 55.1811 19.324C56.3346 19.9194 57.7389 18.8775 57.7389 17.3892C57.7389 16.1488 56.8612 15.2806 55.5321 15.2806C54.8801 15.2558 54.2783 15.0326 53.6765 14.586L52.7988 13.9163L51.9211 15.0822ZM56.7358 17.4884C56.7358 17.9349 56.5603 18.1333 56.134 18.2574C55.7829 18.3318 55.3817 18.3318 55.2563 18.2326C54.83 17.9845 54.9303 16.9178 55.4067 16.645C56.0337 16.3225 56.7358 16.769 56.7358 17.4884ZM41.5395 19.7457C42.041 19.9442 42.0661 20.9116 41.5896 21.3085C40.8875 21.8791 40.0098 21.0109 40.3107 20.0682C40.4863 19.5721 40.8624 19.4977 41.5395 19.7457ZM73.5119 23.7395C74.0386 24.6822 72.7346 25.5256 72.0575 24.707C71.8318 24.4341 71.8067 24.2109 72.0324 23.8388C72.3584 23.2186 73.1609 23.169 73.5119 23.7395Z" fill="#0F172A"/>
<path d="M34.6184 28.8744C33.0386 29.2961 31.5089 30.3132 31.0074 31.3054C30.3554 32.5705 30.2551 35.1504 30.8067 36.3163C32.0104 38.7969 34.2171 39.4419 41.4392 39.4419C46.63 39.4419 46.956 39.5163 46.956 40.9302C46.956 42.369 46.6551 42.4186 38.0037 42.4186C33.7156 42.4186 30.1297 42.493 30.0545 42.6171C29.9291 42.8403 31.0074 44.0558 32.8379 45.693L34.1419 46.8837H40.3609C48.285 46.8837 49.5138 46.6109 51.1187 44.5271C51.6704 43.8078 51.8208 43.3116 51.9211 41.8233C52.0465 39.6403 51.7205 38.4992 50.6673 37.4822C49.3132 36.1674 48.1847 35.9442 41.8655 35.7954C35.7468 35.6465 35.4208 35.5721 35.4208 34.3566C35.4208 33.0171 35.6214 32.9923 43.1694 32.9923H50.1156L50.7174 31.9256C51.0184 31.355 51.6704 30.3628 52.1217 29.693L52.9743 28.5271L44.3731 28.5519C38.3046 28.5519 35.4459 28.6512 34.6184 28.8744Z" fill="#0F172A"/>
<path d="M56.134 28.924C55.9083 29.1225 55.7327 29.3953 55.7327 29.5194C55.7327 29.6434 55.5823 29.8915 55.4068 30.0651C54.6545 30.8341 53.4759 32.4713 53.4759 32.7194C53.4759 32.9178 55.7829 32.9922 61.4502 32.9922C69.1236 32.9922 69.4496 33.0171 69.9762 33.4884C70.5279 34.0093 70.6783 35.0015 70.3774 36.093C70.0765 37.2589 69.6 37.3333 61.7511 37.4574L54.3535 37.5814V46.7597H59.1181L59.3688 41.7984L65.0361 41.7736L70.7034 41.724L72.1829 41.0295C74.0636 40.1116 75.0918 38.8217 75.5432 36.7132C76.145 33.8853 75.2924 31.2558 73.2863 29.8915C71.6061 28.7504 70.0765 28.5271 62.9548 28.5271C57.438 28.5271 56.46 28.5767 56.134 28.924Z" fill="#0F172A"/>
<path d="M61.4752 45.8667C61.2245 46.462 60.9988 47.0078 60.9988 47.0574C60.9988 47.107 60.7229 47.7767 60.3719 48.4961C59.6697 50.0093 57.8141 52.738 56.485 54.1767C54.3786 56.4837 49.4135 59.5101 46.5798 60.2543C44.5236 60.7752 40.9627 60.9985 38.8061 60.7504C32.5621 60.0558 26.1676 56.0372 22.707 50.6543C22.03 49.6372 22.0049 49.6124 20.6006 49.6124C19.7982 49.6124 19.0208 49.5628 18.8202 49.4884C18.6196 49.414 17.9174 49.8605 17.2404 50.5054L16.0116 51.6217L16.6887 52.9612C17.767 54.9954 18.8202 56.2605 19.3217 56.1861C19.5474 56.1364 20.3749 55.9628 21.1272 55.814L22.5064 55.5163L24.0863 57.0791C25.5658 58.5426 25.641 58.6915 25.4905 59.5101C25.3902 60.0062 25.2147 60.6016 25.1144 60.8248C24.6129 61.7674 24.8636 62.214 26.619 63.355C29.1266 65.0171 29.5028 65.0419 30.9823 63.5783L32.1859 62.4124L33.7407 62.9333C34.5933 63.231 35.6967 63.5287 36.1982 63.6031C37.0508 63.7519 37.1009 63.8016 37.6275 65.6124L38.1792 67.4729H43.9468L44.0722 66.7783C44.4483 65.0171 44.7743 64 45.0502 63.7767C45.2006 63.6775 45.7774 63.4791 46.3291 63.4047C46.8808 63.3054 47.8587 63.0574 48.5358 62.8341L49.7144 62.462L51.0184 63.7271C51.7205 64.4217 52.3976 64.9922 52.5229 64.9922C52.8239 64.9922 55.8832 63.2062 56.7358 62.5364L57.3376 62.0651L56.3346 58.6419L59.5193 55.4915L63.2807 56.2357L63.7321 55.5907C63.9829 55.2434 64.6098 54.1768 65.1113 53.2589L66.0392 51.5721L64.9107 50.4558C63.6067 49.1907 63.5566 48.9178 64.2587 46.6605C64.5346 45.7674 64.685 44.9985 64.6098 44.924C64.5346 44.8496 63.9077 44.7752 63.2306 44.7752C61.9768 44.7752 61.9768 44.7752 61.4752 45.8667Z" fill="#0F172A"/>
<path d="M49.4135 49.5876C49.238 49.6372 48.8869 49.8853 48.611 50.1581C47.8838 50.8279 45.8276 51.7457 43.9468 52.2171C41.3389 52.9116 36.9254 52.4155 36.9254 51.4481C36.9254 51.2744 36.6245 50.8031 36.2734 50.3814C35.0196 48.893 32.8379 49.6372 32.8379 51.5473C32.8379 53.2093 34.2422 54.1023 35.6465 53.3581C35.9474 53.1845 36.5743 53.2589 37.6526 53.6062C39.6086 54.2016 43.0441 54.2512 44.975 53.6806C45.7272 53.4574 46.956 52.9612 47.7083 52.5395C49.2379 51.6961 51.5701 49.8605 51.3444 49.662C51.1939 49.5132 49.8398 49.4388 49.4135 49.5876ZM35.2704 50.9271C35.9725 51.4481 35.6967 52.2171 34.7939 52.2171C33.9664 52.2171 33.6655 51.5969 34.167 50.9767C34.5431 50.5302 34.6936 50.5054 35.2704 50.9271Z" fill="#0F172A"/>
<path d="M54.7297 49.8357C54.7297 50.0589 51.871 52.9612 50.9431 53.6806C49.8398 54.524 45.7523 56.2853 44.2979 56.5333C41.8404 56.9798 40.9878 56.9054 40.0098 56.062C38.9817 55.169 38.104 55.1194 37.3016 55.938C36.474 56.7318 36.4239 58.2946 37.2263 59.0388C38.0288 59.7581 39.4331 59.7085 40.1853 58.9147C40.6367 58.4186 41.0129 58.2946 41.9156 58.2946C45.3762 58.2946 49.6141 56.7566 52.523 54.4744C53.7768 53.4822 56.7358 50.1829 56.7358 49.7612C56.7358 49.6868 56.2844 49.6124 55.7327 49.6124C55.1811 49.6124 54.7297 49.7116 54.7297 49.8357ZM39.1823 56.9302C39.6838 57.5256 39.2575 58.3442 38.4801 58.245C37.7279 58.1705 37.452 57.5008 37.9285 56.9302C38.3297 56.4589 38.7811 56.4589 39.1823 56.9302Z" fill="#0F172A"/>
</svg>
